{
  "source": "C:\\Users\\Peter\\Desktop\\stuff\\MIUN\\quantitative_research\\video_compression\\videos\\BVI-HD\\Grass_1920x1080_60fps.mp4",
  "output": "C:\\Users\\Peter\\Desktop\\stuff\\MIUN\\quantitative_research\\video_compression\\compressed_videos\\BVI-HD\\vp9\\12\\Grass_1920x1080_60fps_vp9.webm",
  "codec": "vp9",
  "ok": "Input #0, mov,mp4,m4a,3gp,3g2,mj2, from 'C:\\Users\\Peter\\Desktop\\stuff\\MIUN\\quantitative_research\\video_compression\\videos\\BVI-HD\\Grass_1920x1080_60fps.mp4':\n  Metadata:\n    major_brand     : isom\n    minor_version   : 512\n    compatible_brands: isomiso2avc1mp41\n    encoder         : Lavf54.28.101\n  Duration: 00:00:05.00, start: 0.000000, bitrate: 655968 kb/s\n  Stream #0:0[0x1](und): Video: h264 (High 4:4:4 Predictive) (avc1 / 0x31637661), yuv420p(progressive), 1920x1080, 655963 kb/s, 60 fps, 60 tbr, 60 tbn (default)\n    Metadata:\n      handler_name    : VideoHandler\n      vendor_id       : [0][0][0][0]\n[out#0/webm @ 0000013281a99440] Codec AVOption b:a (set bitrate (in bits/s)) has not been used for any stream. The most likely reason is either wrong type (e.g. a video option with no video streams) or that it is a private option of some decoder which was not actually used for any stream.\nStream mapping:\n  Stream #0:0 -> #0:0 (h264 (native) -> vp9 (libvpx-vp9))\nPress [q] to stop, [?] for help\n[libvpx-vp9 @ 0000013281aab6c0] v1.15.2-100-g40561f514\nOutput #0, webm, to 'C:\\Users\\Peter\\Desktop\\stuff\\MIUN\\quantitative_research\\video_compression\\compressed_videos\\BVI-HD\\vp9\\12\\Grass_1920x1080_60fps_vp9.webm':\n  Metadata:\n    major_brand     : isom\n    minor_version   : 512\n    compatible_brands: isomiso2avc1mp41\n    encoder         : Lavf62.3.100\n  Stream #0:0(und): Video: vp9, yuv420p(tv, progressive), 1920x1080, q=2-31, 12000 kb/s, 60 fps, 1k tbn (default)\n    Metadata:\n      encoder         : Lavc62.11.100 libvpx-vp9\n      handler_name    : VideoHandler\n      vendor_id       : [0][0][0][0]\n    Side data:\n      cpb: bitrate max/min/avg: 0/0/0 buffer size: 12000000 vbv_delay: N/A\nframe=    0 fps=0.0 q=0.0 size=       0KiB time=N/A bitrate=N/A speed=N/A elapsed=0:00:00.51    \nframe=    0 fps=0.0 q=0.0 size=       0KiB time=N/A bitrate=N/A speed=N/A elapsed=0:00:01.08    \nframe=    4 fps=2.5 q=40.0 size=       1KiB time=00:00:00.06 bitrate=  76.0kbits/s speed=0.0416x elapsed=0:00:01.60    \nframe=    8 fps=3.7 q=41.0 size=       1KiB time=00:00:00.11 bitrate=  43.4kbits/s speed=0.0541x elapsed=0:00:02.15    \nframe=   11 fps=4.1 q=42.0 size=       1KiB time=00:00:00.18 bitrate=  27.6kbits/s speed=0.0679x elapsed=0:00:02.70    \nframe=   13 fps=4.0 q=24.0 size=       1KiB time=00:00:00.21 bitrate=  23.4kbits/s speed=0.0669x elapsed=0:00:03.23    \nframe=   16 fps=4.3 q=41.0 size=       1KiB time=00:00:00.26 bitrate=  19.0kbits/s speed=0.0709x elapsed=0:00:03.76    \nframe=   20 fps=4.7 q=42.0 size=       1KiB time=00:00:00.31 bitrate=  16.0kbits/s speed=0.0739x elapsed=0:00:04.28    \nframe=   23 fps=4.7 q=40.0 size=       1KiB time=00:00:00.36 bitrate=  13.8kbits/s speed=0.0756x elapsed=0:00:04.85    \nframe=   26 fps=4.8 q=40.0 size=       1KiB time=00:00:00.41 bitrate=  12.2kbits/s speed=0.0761x elapsed=0:00:05.47    \nframe=   29 fps=4.8 q=38.0 size=       1KiB time=00:00:00.48 bitrate=  10.5kbits/s speed=0.0796x elapsed=0:00:06.07    \nframe=   32 fps=4.8 q=41.0 size=       1KiB time=00:00:00.53 bitrate=   9.5kbits/s speed=0.0807x elapsed=0:00:06.60    \nframe=   35 fps=4.9 q=41.0 size=       1KiB time=00:00:00.58 bitrate=   8.7kbits/s speed=0.0811x elapsed=0:00:07.19    \nframe=   38 fps=4.9 q=42.0 size=       1KiB time=00:00:00.63 bitrate=   8.0kbits/s speed=0.0817x elapsed=0:00:07.75    \nframe=   41 fps=4.9 q=38.0 size=       1KiB time=00:00:00.68 bitrate=   7.4kbits/s speed=0.0819x elapsed=0:00:08.34    \nframe=   44 fps=5.0 q=43.0 size=       1KiB time=00:00:00.73 bitrate=   6.9kbits/s speed=0.0826x elapsed=0:00:08.88    \nframe=   47 fps=5.0 q=40.0 size=       1KiB time=00:00:00.78 bitrate=   6.5kbits/s speed=0.083x elapsed=0:00:09.44    \nframe=   50 fps=5.0 q=41.0 size=       1KiB time=00:00:00.83 bitrate=   6.1kbits/s speed=0.0836x elapsed=0:00:09.96    \nframe=   53 fps=5.0 q=39.0 size=       1KiB time=00:00:00.88 bitrate=   5.7kbits/s speed=0.0839x elapsed=0:00:10.53    \nframe=   56 fps=5.1 q=42.0 size=       1KiB time=00:00:00.93 bitrate=   5.4kbits/s speed=0.0842x elapsed=0:00:11.07    \nframe=   60 fps=5.2 q=43.0 size=       1KiB time=00:00:00.98 bitrate=   5.1kbits/s speed=0.0846x elapsed=0:00:11.62    \nframe=   62 fps=5.1 q=41.0 size=       1KiB time=00:00:01.03 bitrate=   4.9kbits/s speed=0.0847x elapsed=0:00:12.19    \nframe=   65 fps=5.1 q=38.0 size=       1KiB time=00:00:01.08 bitrate=   4.7kbits/s speed=0.0847x elapsed=0:00:12.78    \nframe=   68 fps=5.1 q=42.0 size=       1KiB time=00:00:01.13 bitrate=   4.5kbits/s speed=0.0851x elapsed=0:00:13.31    \nframe=   72 fps=5.2 q=43.0 size=       1KiB time=00:00:01.20 bitrate=   4.2kbits/s speed=0.0867x elapsed=0:00:13.84    \nframe=   74 fps=5.1 q=40.0 size=       1KiB time=00:00:01.23 bitrate=   4.1kbits/s speed=0.0854x elapsed=0:00:14.43    \nframe=   78 fps=5.2 q=42.0 size=       1KiB time=00:00:01.30 bitrate=   3.9kbits/s speed=0.0868x elapsed=0:00:14.98    \nframe=   81 fps=5.2 q=40.0 size=       1KiB time=00:00:01.35 bitrate=   3.8kbits/s speed=0.0869x elapsed=0:00:15.54    \nframe=   84 fps=5.2 q=42.0 size=       1KiB time=00:00:01.40 bitrate=   3.6kbits/s speed=0.0871x elapsed=0:00:16.06    \nframe=   87 fps=5.2 q=35.0 size=       1KiB time=00:00:01.45 bitrate=   3.5kbits/s speed=0.0872x elapsed=0:00:16.62    \nframe=   90 fps=5.2 q=42.0 size=       1KiB time=00:00:01.50 bitrate=   3.4kbits/s speed=0.0874x elapsed=0:00:17.16    \nframe=   93 fps=5.2 q=38.0 size=       1KiB time=00:00:01.55 bitrate=   3.3kbits/s speed=0.0875x elapsed=0:00:17.71    \nframe=   96 fps=5.3 q=43.0 size=       1KiB time=00:00:01.60 bitrate=   3.2kbits/s speed=0.0876x elapsed=0:00:18.27    \nframe=   99 fps=5.3 q=35.0 size=       1KiB time=00:00:01.65 bitrate=   3.1kbits/s speed=0.0877x elapsed=0:00:18.81    \nframe=  102 fps=5.3 q=41.0 size=       1KiB time=00:00:01.70 bitrate=   3.0kbits/s speed=0.0879x elapsed=0:00:19.33    \nframe=  106 fps=5.3 q=42.0 size=       1KiB time=00:00:01.76 bitrate=   2.9kbits/s speed=0.0889x elapsed=0:00:19.86    \nframe=  108 fps=5.3 q=43.0 size=       1KiB time=00:00:01.80 bitrate=   2.8kbits/s speed=0.0882x elapsed=0:00:20.40    \nframe=  111 fps=5.3 q=36.0 size=       1KiB time=00:00:01.85 bitrate=   2.7kbits/s speed=0.0884x elapsed=0:00:20.93    \nframe=  114 fps=5.3 q=42.0 size=       1KiB time=00:00:01.90 bitrate=   2.7kbits/s speed=0.0886x elapsed=0:00:21.45    \nframe=  118 fps=5.4 q=43.0 size=       1KiB time=00:00:01.96 bitrate=   2.6kbits/s speed=0.0894x elapsed=0:00:21.98    \nframe=  120 fps=5.3 q=38.0 size=       1KiB time=00:00:02.00 bitrate=   2.5kbits/s speed=0.0887x elapsed=0:00:22.54    \nframe=  124 fps=5.4 q=42.0 size=       1KiB time=00:00:02.06 bitrate=   2.5kbits/s speed=0.0896x elapsed=0:00:23.05    \nframe=  127 fps=5.4 q=40.0 size=       1KiB time=00:00:02.11 bitrate=   2.4kbits/s speed=0.0897x elapsed=0:00:23.59    \nframe=  130 fps=5.4 q=39.0 size=    3584KiB time=00:00:02.16 bitrate=13550.8kbits/s speed=0.0899x elapsed=0:00:24.10    \nframe=  133 fps=5.4 q=38.0 size=    3584KiB time=00:00:02.21 bitrate=13245.2kbits/s speed=0.09x elapsed=0:00:24.63    \nframe=  136 fps=5.4 q=43.0 size=    3584KiB time=00:00:02.26 bitrate=12953.0kbits/s speed=0.0899x elapsed=0:00:25.21    \nframe=  139 fps=5.4 q=38.0 size=    3584KiB time=00:00:02.31 bitrate=12673.4kbits/s speed=0.0899x elapsed=0:00:25.77    \nframe=  142 fps=5.4 q=35.0 size=    3584KiB time=00:00:02.36 bitrate=12405.7kbits/s speed=0.0899x elapsed=0:00:26.33    \nframe=  145 fps=5.4 q=40.0 size=    3584KiB time=00:00:02.41 bitrate=12149.0kbits/s speed=0.0899x elapsed=0:00:26.88    \nframe=  147 fps=5.4 q=41.0 size=    3584KiB time=00:00:02.45 bitrate=11983.7kbits/s speed=0.0893x elapsed=0:00:27.43    \nframe=  149 fps=5.3 q=41.0 size=    3584KiB time=00:00:02.48 bitrate=11822.9kbits/s speed=0.0886x elapsed=0:00:28.01    \nframe=  150 fps=5.2 q=39.0 size=    3584KiB time=00:00:02.50 bitrate=11744.1kbits/s speed=0.0875x elapsed=0:00:28.58    \nframe=  151 fps=5.2 q=42.0 size=    3584KiB time=00:00:02.51 bitrate=11666.3kbits/s speed=0.0863x elapsed=0:00:29.15    \nframe=  151 fps=5.1 q=42.0 size=    3584KiB time=00:00:02.51 bitrate=11666.3kbits/s speed=0.0848x elapsed=0:00:29.66    \nframe=  153 fps=5.1 q=38.0 size=    3584KiB time=00:00:02.55 bitrate=11513.8kbits/s speed=0.0844x elapsed=0:00:30.19    \nframe=  154 fps=5.0 q=35.0 size=    3584KiB time=00:00:02.56 bitrate=11439.0kbits/s speed=0.083x elapsed=0:00:30.92    \nframe=  156 fps=5.0 q=37.0 size=    3584KiB time=00:00:02.60 bitrate=11292.4kbits/s speed=0.0826x elapsed=0:00:31.45    \nframe=  158 fps=4.9 q=38.0 size=    3584KiB time=00:00:02.63 bitrate=11149.4kbits/s speed=0.0821x elapsed=0:00:32.07    \nframe=  161 fps=4.9 q=41.0 size=    3584KiB time=00:00:02.68 bitrate=10941.7kbits/s speed=0.0822x elapsed=0:00:32.65    \nframe=  163 fps=4.9 q=41.0 size=    3584KiB time=00:00:02.71 bitrate=10807.4kbits/s speed=0.0816x elapsed=0:00:33.30    \nframe=  165 fps=4.9 q=39.0 size=    3584KiB time=00:00:02.75 bitrate=10676.4kbits/s speed=0.0813x elapsed=0:00:33.83    \nframe=  168 fps=4.9 q=36.0 size=    3584KiB time=00:00:02.80 bitrate=10485.8kbits/s speed=0.0814x elapsed=0:00:34.40    \nframe=  171 fps=4.9 q=41.0 size=    3584KiB time=00:00:02.85 bitrate=10301.8kbits/s speed=0.0814x elapsed=0:00:35.00    \nframe=  173 fps=4.9 q=42.0 size=    3584KiB time=00:00:02.88 bitrate=10182.7kbits/s speed=0.081x elapsed=0:00:35.60    \nframe=  175 fps=4.8 q=43.0 size=    3584KiB time=00:00:02.91 bitrate=10066.3kbits/s speed=0.0805x elapsed=0:00:36.25    \nframe=  177 fps=4.8 q=36.0 size=    3584KiB time=00:00:02.95 bitrate=9952.6kbits/s speed=0.08x elapsed=0:00:36.86    \nframe=  180 fps=4.8 q=38.0 size=    3584KiB time=00:00:03.00 bitrate=9786.7kbits/s speed=0.0801x elapsed=0:00:37.43    \nframe=  182 fps=4.8 q=39.0 size=    3584KiB time=00:00:03.03 bitrate=9679.2kbits/s speed=0.0799x elapsed=0:00:37.97    \nframe=  185 fps=4.8 q=41.0 size=    3584KiB time=00:00:03.08 bitrate=9522.2kbits/s speed=0.0801x elapsed=0:00:38.51    \nframe=  187 fps=4.8 q=41.0 size=    3584KiB time=00:00:03.11 bitrate=9420.4kbits/s speed=0.0797x elapsed=0:00:39.10    \nframe=  188 fps=4.7 q=25.0 size=    3584KiB time=00:00:03.13 bitrate=9370.3kbits/s speed=0.0789x elapsed=0:00:39.72    \nframe=  190 fps=4.7 q=34.0 size=    3584KiB time=00:00:03.16 bitrate=9271.6kbits/s speed=0.0787x elapsed=0:00:40.25    \nframe=  192 fps=4.7 q=37.0 size=    3584KiB time=00:00:03.20 bitrate=9175.0kbits/s speed=0.0785x elapsed=0:00:40.76    \nframe=  194 fps=4.7 q=38.0 size=    3584KiB time=00:00:03.23 bitrate=9080.5kbits/s speed=0.0782x elapsed=0:00:41.36    \nframe=  196 fps=4.7 q=38.0 size=    3584KiB time=00:00:03.26 bitrate=8987.8kbits/s speed=0.078x elapsed=0:00:41.88    \nframe=  199 fps=4.7 q=42.0 size=    3584KiB time=00:00:03.30 bitrate=8897.0kbits/s speed=0.0778x elapsed=0:00:42.42    \nframe=  201 fps=4.7 q=37.0 size=    3584KiB time=00:00:03.35 bitrate=8764.2kbits/s speed=0.0777x elapsed=0:00:43.11    \nframe=  203 fps=4.6 q=39.0 size=    3584KiB time=00:00:03.38 bitrate=8677.9kbits/s speed=0.0772x elapsed=0:00:43.81    \nframe=  205 fps=4.6 q=40.0 size=    3584KiB time=00:00:03.41 bitrate=8593.2kbits/s speed=0.0768x elapsed=0:00:44.51    \nframe=  207 fps=4.6 q=41.0 size=    3584KiB time=00:00:03.45 bitrate=8510.2kbits/s speed=0.0764x elapsed=0:00:45.13    \nframe=  209 fps=4.6 q=41.0 size=    3584KiB time=00:00:03.48 bitrate=8428.7kbits/s speed=0.0762x elapsed=0:00:45.72    \nframe=  211 fps=4.6 q=42.0 size=    3584KiB time=00:00:03.51 bitrate=8348.9kbits/s speed=0.076x elapsed=0:00:46.26    \nframe=  213 fps=4.5 q=37.0 size=    3584KiB time=00:00:03.55 bitrate=8270.5kbits/s speed=0.0758x elapsed=0:00:46.84    \nframe=  215 fps=4.5 q=40.0 size=    3584KiB time=00:00:03.58 bitrate=8193.5kbits/s speed=0.0756x elapsed=0:00:47.41    \nframe=  217 fps=4.5 q=41.0 size=    3584KiB time=00:00:03.61 bitrate=8118.0kbits/s speed=0.0754x elapsed=0:00:47.96    \nframe=  219 fps=4.5 q=41.0 size=    3584KiB time=00:00:03.65 bitrate=8043.9kbits/s speed=0.0752x elapsed=0:00:48.55    \nframe=  221 fps=4.5 q=41.0 size=    3584KiB time=00:00:03.68 bitrate=7971.1kbits/s speed=0.075x elapsed=0:00:49.10    \nframe=  223 fps=4.5 q=42.0 size=    3584KiB time=00:00:03.71 bitrate=7899.6kbits/s speed=0.0749x elapsed=0:00:49.62    \nframe=  224 fps=4.5 q=25.0 size=    3584KiB time=00:00:03.71 bitrate=7899.6kbits/s speed=0.0741x elapsed=0:00:50.17    \nframe=  225 fps=4.4 q=37.0 size=    3584KiB time=00:00:03.75 bitrate=7829.4kbits/s speed=0.0739x elapsed=0:00:50.72    \nframe=  228 fps=4.4 q=36.0 size=    3584KiB time=00:00:03.80 bitrate=7726.3kbits/s speed=0.0741x elapsed=0:00:51.26    \nframe=  230 fps=4.4 q=37.0 size=    3584KiB time=00:00:03.83 bitrate=7659.2kbits/s speed=0.074x elapsed=0:00:51.82    \nframe=  232 fps=4.4 q=36.0 size=    3584KiB time=00:00:03.85 bitrate=7626.0kbits/s speed=0.0735x elapsed=0:00:52.39    \nframe=  233 fps=4.4 q=42.0 size=    3584KiB time=00:00:03.88 bitrate=7560.5kbits/s speed=0.0733x elapsed=0:00:52.97    \nframe=  235 fps=4.4 q=44.0 size=    3584KiB time=00:00:03.91 bitrate=7496.2kbits/s speed=0.0732x elapsed=0:00:53.50    \nframe=  237 fps=4.4 q=35.0 size=    3584KiB time=00:00:03.95 bitrate=7432.9kbits/s speed=0.0731x elapsed=0:00:54.04    \nframe=  239 fps=4.4 q=38.0 size=    3584KiB time=00:00:03.98 bitrate=7370.7kbits/s speed=0.0729x elapsed=0:00:54.64    \nframe=  241 fps=4.4 q=40.0 size=    3584KiB time=00:00:04.01 bitrate=7309.6kbits/s speed=0.0727x elapsed=0:00:55.24    \nframe=  243 fps=4.4 q=40.0 size=    3584KiB time=00:00:04.05 bitrate=7249.4kbits/s speed=0.0725x elapsed=0:00:55.82    \nframe=  245 fps=4.3 q=41.0 size=    3584KiB time=00:00:04.08 bitrate=7190.2kbits/s speed=0.0724x elapsed=0:00:56.38    \nframe=  246 fps=4.3 q=25.0 size=    3584KiB time=00:00:04.10 bitrate=7161.0kbits/s speed=0.0719x elapsed=0:00:56.98    \nframe=  247 fps=4.3 q=37.0 size=    3584KiB time=00:00:04.11 bitrate=7132.0kbits/s speed=0.0716x elapsed=0:00:57.51    \nframe=  249 fps=4.3 q=39.0 size=    3584KiB time=00:00:04.15 bitrate=7074.7kbits/s speed=0.0714x elapsed=0:00:58.11    \nframe=  251 fps=4.3 q=40.0 size=    3584KiB time=00:00:04.18 bitrate=7018.4kbits/s speed=0.0713x elapsed=0:00:58.65    \nframe=  253 fps=4.3 q=41.0 size=    3584KiB time=00:00:04.21 bitrate=6962.9kbits/s speed=0.0711x elapsed=0:00:59.29    \nframe=  255 fps=4.3 q=42.0 size=    3584KiB time=00:00:04.25 bitrate=6908.3kbits/s speed=0.0709x elapsed=0:00:59.95    \nframe=  256 fps=4.2 q=35.0 size=    3584KiB time=00:00:04.26 bitrate=6881.3kbits/s speed=0.0705x elapsed=0:01:00.53    \nframe=  256 fps=4.2 q=35.0 size=    3584KiB time=00:00:04.26 bitrate=6881.3kbits/s speed=0.0697x elapsed=0:01:01.23    \nframe=  258 fps=4.2 q=42.0 size=    7168KiB time=00:00:04.30 bitrate=13655.9kbits/s speed=0.0696x elapsed=0:01:01.75    \nframe=  260 fps=4.2 q=40.0 size=    7168KiB time=00:00:04.31 bitrate=13603.1kbits/s speed=0.0692x elapsed=0:01:02.35    \nframe=  261 fps=4.1 q=35.0 size=    7168KiB time=00:00:04.33 bitrate=13550.8kbits/s speed=0.0688x elapsed=0:01:02.99    \nframe=  262 fps=4.1 q=41.0 size=    7168KiB time=00:00:04.36 bitrate=13447.4kbits/s speed=0.0686x elapsed=0:01:03.63    \nframe=  264 fps=4.1 q=43.0 size=    7168KiB time=00:00:04.40 bitrate=13345.5kbits/s speed=0.0684x elapsed=0:01:04.29    \nframe=  266 fps=4.1 q=45.0 size=    7168KiB time=00:00:04.43 bitrate=13245.2kbits/s speed=0.0683x elapsed=0:01:04.92    \nframe=  266 fps=4.1 q=45.0 size=    7168KiB time=00:00:04.43 bitrate=13245.2kbits/s speed=0.0677x elapsed=0:01:05.53    \nframe=  268 fps=4.1 q=46.0 size=    7168KiB time=00:00:04.46 bitrate=13146.3kbits/s speed=0.0676x elapsed=0:01:06.06    \nframe=  269 fps=4.0 q=24.0 size=    7168KiB time=00:00:04.48 bitrate=13097.5kbits/s speed=0.0672x elapsed=0:01:06.69    \nframe=  270 fps=4.0 q=33.0 size=    7168KiB time=00:00:04.50 bitrate=13048.9kbits/s speed=0.0667x elapsed=0:01:07.43    \nframe=  272 fps=4.0 q=40.0 size=    7168KiB time=00:00:04.53 bitrate=12953.0kbits/s speed=0.0666x elapsed=0:01:08.05    \nframe=  273 fps=4.0 q=33.0 size=    7168KiB time=00:00:04.55 bitrate=12905.6kbits/s speed=0.0662x elapsed=0:01:08.76    \nframe=  274 fps=3.9 q=42.0 size=    7168KiB time=00:00:04.56 bitrate=12858.4kbits/s speed=0.0658x elapsed=0:01:09.39    \nframe=  276 fps=3.9 q=43.0 size=    7168KiB time=00:00:04.60 bitrate=12765.3kbits/s speed=0.0657x elapsed=0:01:10.01    \nframe=  276 fps=3.9 q=43.0 size=    7168KiB time=00:00:04.60 bitrate=12765.3kbits/s speed=0.0651x elapsed=0:01:10.65    \nframe=  276 fps=3.9 q=43.0 size=    7168KiB time=00:00:04.60 bitrate=12765.3kbits/s speed=0.0645x elapsed=0:01:11.28    \nframe=  276 fps=3.8 q=43.0 size=    7168KiB time=00:00:04.60 bitrate=12765.3kbits/s speed=0.064x elapsed=0:01:11.85    \nframe=  276 fps=3.8 q=43.0 size=    7168KiB time=00:00:04.60 bitrate=12765.3kbits/s speed=0.0634x elapsed=0:01:12.51    \nframe=  276 fps=3.8 q=43.0 size=    7168KiB time=00:00:04.60 bitrate=12765.3kbits/s speed=0.0629x elapsed=0:01:13.08    \nframe=  276 fps=3.7 q=43.0 size=    7168KiB time=00:00:04.60 bitrate=12765.3kbits/s speed=0.0624x elapsed=0:01:13.68    \nframe=  276 fps=3.7 q=43.0 size=    7168KiB time=00:00:04.60 bitrate=12765.3kbits/s speed=0.062x elapsed=0:01:14.22    \nframe=  276 fps=3.7 q=43.0 size=    7168KiB time=00:00:04.60 bitrate=12765.3kbits/s speed=0.0615x elapsed=0:01:14.81    \nframe=  276 fps=3.7 q=43.0 size=    7168KiB time=00:00:04.60 bitrate=12765.3kbits/s speed=0.061x elapsed=0:01:15.37    \nframe=  276 fps=3.6 q=43.0 size=    7168KiB time=00:00:04.60 bitrate=12765.3kbits/s speed=0.0606x elapsed=0:01:15.92    \nframe=  276 fps=3.6 q=43.0 size=    7168KiB time=00:00:04.60 bitrate=12765.3kbits/s speed=0.0602x elapsed=0:01:16.46    \nframe=  276 fps=3.6 q=43.0 size=    7168KiB time=00:00:04.60 bitrate=12765.3kbits/s speed=0.0597x elapsed=0:01:17.00    \nframe=  276 fps=3.6 q=43.0 size=    7168KiB time=00:00:04.60 bitrate=12765.3kbits/s speed=0.0593x elapsed=0:01:17.53    \nframe=  300 fps=3.8 q=38.0 size=    7168KiB time=00:00:04.60 bitrate=12765.3kbits/s speed=0.0589x elapsed=0:01:18.08    \n[out#0/webm @ 0000013281a99440] video:8825KiB audio:0KiB subtitle:0KiB other streams:0KiB global headers:0KiB muxing overhead: 0.032909%\nframe=  300 fps=3.8 q=38.0 Lsize=    8828KiB time=00:00:05.00 bitrate=14463.9kbits/s speed=0.064x elapsed=0:01:18.11    \n",
  "seconds": 78.56352996826172,
  "probe_out": {}
}